<?xml version="1.0" encoding="UTF-8" standalone="no"?>
<!-- Generator: Adobe Illustrator 19.0.0, SVG Export Plug-In . SVG Version: 6.00 Build 0)  -->

<svg
   version="1.1"
   id="Layer_1"
   x="0px"
   y="0px"
   viewBox="0 0 291.48908 270.10301"
   xml:space="preserve"
   sodipodi:docname="splash.svg"
   width="291.48907"
   height="270.103"
   inkscape:version="1.2 (dc2aedaf03, 2022-05-15)"
   xmlns:inkscape="http://www.inkscape.org/namespaces/inkscape"
   xmlns:sodipodi="http://sodipodi.sourceforge.net/DTD/sodipodi-0.dtd"
   xmlns="http://www.w3.org/2000/svg"
   xmlns:svg="http://www.w3.org/2000/svg"><defs
   id="defs75" /><sodipodi:namedview
   id="namedview73"
   pagecolor="#ffffff"
   bordercolor="#000000"
   borderopacity="0.25"
   inkscape:showpageshadow="2"
   inkscape:pageopacity="0.0"
   inkscape:pagecheckerboard="0"
   inkscape:deskcolor="#d1d1d1"
   showgrid="false"
   inkscape:zoom="1.5273408"
   inkscape:cx="256.32785"
   inkscape:cy="32.736635"
   inkscape:window-width="1920"
   inkscape:window-height="1011"
   inkscape:window-x="0"
   inkscape:window-y="0"
   inkscape:window-maximized="1"
   inkscape:current-layer="Layer_1" />
<path
   style="fill:#9f8976;stroke-width:0.569313"
   d="m 145.74482,44.434545 c 37.61169,0 58.14114,20.87957 66.41554,38.46396 4.85055,10.30855 8.80728,21.399345 8.80728,33.662355 0,24.94333 -9.40278,91.35945 -9.40278,91.35945 -4.70139,29.65212 -13.85254,45.43349 -37.61056,47.84681 h -28.21005 -28.20948 c -23.757454,-2.41275 -32.909168,-18.19469 -37.610559,-47.84625 0,0 -9.402781,-66.41611 -9.402781,-91.35944 0,-12.26244 3.956729,-23.353805 8.807279,-33.661795 8.274972,-17.58552 28.804411,-38.46509 66.416111,-38.46509 z"
   id="path2" />
<path
   style="fill:#ffebd2;stroke-width:0.569313"
   d="m 112.83452,234.30001 c 0,26.96383 14.7344,35.80299 32.9103,35.80299 18.1759,0 32.9103,-8.83916 32.9103,-35.80299 z"
   id="path4" />
<path
   style="fill:#ffffff;stroke-width:0.569313"
   d="m 188.05734,218.89098 c 0,20.86477 -18.94391,27.70507 -42.31309,27.70507 -23.36918,0 -42.31309,-6.83974 -42.31309,-27.70507 0,-20.86534 18.94391,-42.81636 42.31309,-42.81636 23.36918,0 42.31309,21.95159 42.31309,42.81636 z"
   id="path6" />
<g
   id="g14"
   transform="matrix(0.56931348,0,0,0.56931348,0,-10.692645)">
	<circle
   style="fill:#464655"
   cx="165.162"
   cy="245.472"
   r="16.516001"
   id="circle8" />
	<circle
   style="fill:#464655"
   cx="346.83899"
   cy="245.472"
   r="16.516001"
   id="circle10" />
	<path
   style="fill:#464655"
   d="m 296.783,404.881 c 0.147,-0.455 0.398,-0.879 0.465,-1.352 0.108,-0.773 -0.01,-1.556 -0.123,-2.333 -0.04,-0.277 0.024,-0.555 -0.044,-0.827 -0.129,-0.511 -0.464,-0.965 -0.694,-1.451 -0.237,-0.505 -0.371,-1.042 -0.719,-1.505 0,0 -0.005,-0.004 -0.007,-0.006 v -10e-4 c -2.571,-3.426 -7.266,-4.157 -10.832,-1.969 -0.234,0.142 -0.502,0.179 -0.726,0.347 l -1.967,1.486 c -0.408,0.308 -0.792,0.598 -1.212,0.915 -14.604,11.009 -35.017,11.04 -49.652,0.074 l -3.315,-2.484 c -1.766,-1.325 -3.886,-1.795 -5.916,-1.555 -0.068,0.008 -0.136,-0.02 -0.204,-0.01 -0.435,0.063 -0.823,0.299 -1.243,0.43 -1.602,0.495 -3.11,1.341 -4.193,2.788 -2.742,3.645 -2.001,8.823 1.654,11.556 l 3.306,2.484 c 0.01,0.008 0.022,0.012 0.033,0.021 l 29.693,22.27 c 1.46,1.097 3.202,1.654 4.952,1.654 1.597,0 3.194,-0.459 4.588,-1.387 1.853,-1.24 20.802,-15.525 30.233,-22.648 0.01,-0.008 0.023,-0.013 0.033,-0.022 l 3.145,-2.379 0.005,-0.006 0.002,-0.002 c 0.148,-0.111 0.215,-0.28 0.353,-0.398 0.711,-0.615 1.371,-1.276 1.82,-2.053 0.295,-0.509 0.387,-1.086 0.565,-1.637 z"
   id="path12" />
</g>
<g
   id="g20"
   transform="matrix(0.56931348,0,0,0.56931348,0,-10.692645)">
	<path
   style="fill:#877364"
   d="m 90.839,319.799 c -27.871,21.161 -35.957,-89.634 48.86,-187.183 0,0 -59.831,-22.361 -75.011,-11.011 -43.142,32.257 -30.279,213.333 -30.279,213.333 l 34.408,12.387 z"
   id="path16" />
	<path
   style="fill:#877364"
   d="m 156.904,171.153 c 74.323,-8.258 82.581,-66.065 82.581,-66.065 C 231.226,63.798 99.097,-56.976 27.871,88.573 c 0,0 80.86,2.065 82.925,4.129 2.064,2.064 46.108,78.451 46.108,78.451"
   id="path18" />
</g>
<path
   style="fill:#9f8976;stroke-width:0.569313"
   d="M 51.715867,171.37323 C 42.313086,218.3877 0,199.58157 0,100.8518 0,58.901935 23.506954,11.524245 42.313086,11.524245 c 37.611695,0 47.014476,75.22281 47.014476,75.22281 0,0 -62.881812,-66.9951 -62.881812,55.242195 0,61.11865 25.270117,29.38398 25.270117,29.38398 z"
   id="path22" />
<g
   id="g28"
   transform="matrix(0.56931348,0,0,0.56931348,0,-10.692645)">
	<path
   style="fill:#877364"
   d="m 421.162,319.799 c 27.871,21.161 35.957,-89.634 -48.86,-187.183 0,0 59.831,-22.361 75.011,-11.011 43.142,32.257 30.279,213.333 30.279,213.333 l -34.408,12.387 z"
   id="path24" />
	<path
   style="fill:#877364"
   d="m 355.098,171.153 c -74.323,-8.258 -82.581,-66.065 -82.581,-66.065 8.258,-41.29 140.387,-162.065 211.613,-16.516 0,0 -80.86,2.065 -82.925,4.129 -2.065,2.065 -46.107,78.452 -46.107,78.452"
   id="path26" />
</g>
<g
   id="g34"
   transform="matrix(0.56931348,0,0,0.56931348,0,-10.692645)">
	<path
   style="fill:#9f8976"
   d="m 421.162,319.799 c 16.516,82.581 90.839,49.548 90.839,-123.871 0,-73.685 -41.29,-156.904 -74.323,-156.904 -66.065,0 -82.581,132.129 -82.581,132.129 0,0 110.452,-117.678 110.452,97.032 0,107.356 -44.387,51.614 -44.387,51.614 z"
   id="path30" />
	<path
   style="fill:#9f8976"
   d="m 164.598,199.299 c 0,0 -36.276,-43.531 -102.028,-35.388 -8.497,1.052 -14.28,9.178 -12.787,17.607 3.551,20.037 18.994,53.363 81.782,59.071 z"
   id="path32" />
</g>
<path
   style="fill:#cfbaa4;stroke-width:0.569313"
   d="m 46.775934,82.134485 c -3.546254,-0.0974 -7.235405,0.003 -11.15342,0.48904 -4.836888,0.59948 -8.129797,5.22516 -7.279812,10.0239 2.021063,11.407325 10.81354,30.380275 46.559595,33.629915 0,5.7e-4 3.929971,-31.663505 -28.126363,-44.142855 z"
   id="path36" />
<path
   style="fill:#9f8976;stroke-width:0.569313"
   d="m 197.78121,102.77095 c 0,0 20.65242,-24.782775 58.08592,-20.146855 4.83745,0.59891 8.12979,5.22516 7.27981,10.0239 -2.02163,11.407325 -10.81354,30.380265 -46.5596,33.629915 z"
   id="path38" />
<path
   style="fill:#cfbaa4;stroke-width:0.569313"
   d="m 244.71314,82.134485 c 3.54625,-0.0974 7.23597,0.003 11.15342,0.48904 4.83688,0.59948 8.12979,5.22516 7.27981,10.0239 -2.02106,11.407325 -10.81354,30.380275 -46.5596,33.629915 0,5.7e-4 -3.92997,-31.663505 28.12637,-44.142855 z"
   id="path40" />
<g
   id="g42"
   transform="matrix(0.56931348,0,0,0.56931348,0,-10.692645)">
</g>
<g
   id="g44"
   transform="matrix(0.56931348,0,0,0.56931348,0,-10.692645)">
</g>
<g
   id="g46"
   transform="matrix(0.56931348,0,0,0.56931348,0,-10.692645)">
</g>
<g
   id="g48"
   transform="matrix(0.56931348,0,0,0.56931348,0,-10.692645)">
</g>
<g
   id="g50"
   transform="matrix(0.56931348,0,0,0.56931348,0,-10.692645)">
</g>
<g
   id="g52"
   transform="matrix(0.56931348,0,0,0.56931348,0,-10.692645)">
</g>
<g
   id="g54"
   transform="matrix(0.56931348,0,0,0.56931348,0,-10.692645)">
</g>
<g
   id="g56"
   transform="matrix(0.56931348,0,0,0.56931348,0,-10.692645)">
</g>
<g
   id="g58"
   transform="matrix(0.56931348,0,0,0.56931348,0,-10.692645)">
</g>
<g
   id="g60"
   transform="matrix(0.56931348,0,0,0.56931348,0,-10.692645)">
</g>
<g
   id="g62"
   transform="matrix(0.56931348,0,0,0.56931348,0,-10.692645)">
</g>
<g
   id="g64"
   transform="matrix(0.56931348,0,0,0.56931348,0,-10.692645)">
</g>
<g
   id="g66"
   transform="matrix(0.56931348,0,0,0.56931348,0,-10.692645)">
</g>
<g
   id="g68"
   transform="matrix(0.56931348,0,0,0.56931348,0,-10.692645)">
</g>
<g
   id="g70"
   transform="matrix(0.56931348,0,0,0.56931348,0,-10.692645)">
</g>
</svg>
